<?xml version="1.0" encoding="UTF-8" standalone="no"?>
<!-- Created with Inkscape (http://www.inkscape.org/) -->

<svg
   width="192"
   height="192"
   viewBox="0 0 50.799999 50.800001"
   version="1.1"
   id="svg5"
   inkscape:version="1.1 (ce6663b3b7, 2021-05-25)"
   sodipodi:docname="dude.svg"
   xmlns:inkscape="http://www.inkscape.org/namespaces/inkscape"
   xmlns:sodipodi="http://sodipodi.sourceforge.net/DTD/sodipodi-0.dtd"
   xmlns="http://www.w3.org/2000/svg"
   xmlns:svg="http://www.w3.org/2000/svg">
  <sodipodi:namedview
     id="namedview7"
     pagecolor="#ffffff"
     bordercolor="#666666"
     borderopacity="1.0"
     inkscape:pageshadow="2"
     inkscape:pageopacity="0.0"
     inkscape:pagecheckerboard="0"
     inkscape:document-units="px"
     showgrid="false"
     inkscape:zoom="0.75187991"
     inkscape:cx="11.304997"
     inkscape:cy="189.52495"
     inkscape:window-width="1848"
     inkscape:window-height="1016"
     inkscape:window-x="72"
     inkscape:window-y="27"
     inkscape:window-maximized="1"
     inkscape:current-layer="layer1"
     units="px"
     width="192px" />
  <defs
     id="defs2" />
  <g
     inkscape:label="Layer 1"
     inkscape:groupmode="layer"
     id="layer1">
    <g
       id="g1265"
       transform="matrix(6.2540717,0,0,6.2540717,-339.28977,-388.85993)">
      <g
         id="use1263"
         transform="scale(0.26458333)">
        <path
           fill="#ffe0b1"
           stroke="none"
           d="m 226.75,255.9 q -0.15,2.1 -1.7,3.65 -0.9,0.9 -2.05,1.3 -0.95,0.35 -2.05,0.35 -2.4,0 -4.1,-1.65 -0.95,-0.95 -1.35,-2.15 -0.2,-0.1 -0.35,-0.25 v 0.8 q 0,2.4 1.7,4.1 1.7,1.65 4.1,1.65 1.1,0 2.05,-0.35 1.15,-0.4 2.05,-1.3 1.7,-1.7 1.7,-4.1 v -2.05 m -4.5,-11.2 q -0.15,0.2 -0.25,0.4 0.5,0.05 1,0.2 1.15,0.35 2.1,1.3 1.6,1.6 1.6,3.75 0,2.2 -1.6,3.8 -0.95,0.95 -2.1,1.35 -0.45,0.15 -0.95,0.2 0.05,0.15 0.2,0.35 0.05,0.05 0.05,0.1 0.9,1.5 0.3,2.25 0.2,-0.05 0.4,-0.1 1.85,-0.5 3.3,-1.95 0.2,-0.25 0.45,-0.45 v -0.05 q 0.15,-1.4 0.95,-2.55 0.75,-1.1 0.8,-2.95 -0.05,-1.85 -0.8,-2.95 -0.8,-1.15 -0.95,-2.55 -0.25,-0.25 -0.45,-0.5 -1.45,-1.45 -3.3,-1.95 -0.2,-0.05 -0.45,-0.1 0.7,0.7 -0.25,2.3 0,0.05 -0.05,0.1 m -7.1,-1.1 q 0.15,-0.1 0.3,-0.2 0.4,-1.25 1.4,-2.25 1.7,-1.65 4.1,-1.65 1.1,0 2.05,0.35 1.15,0.4 2.05,1.3 1.55,1.55 1.7,3.7 v -2.1 q 0,-2.4 -1.7,-4.1 -0.9,-0.9 -2.05,-1.3 -0.95,-0.35 -2.05,-0.35 -2.4,0 -4.1,1.65 -1.7,1.7 -1.7,4.1 z"
           id="path62" />
        <path
           fill="#2ecc71"
           stroke="none"
           d="m 226.3,256.35 q -1.45,1.45 -3.3,1.95 -0.2,0.05 -0.4,0.1 -0.55,0.6 -2.15,0.6 -2.85,0 -4.95,-1.6 0.4,1.2 1.35,2.15 1.7,1.65 4.1,1.65 1.1,0 2.05,-0.35 1.15,-0.4 2.05,-1.3 1.55,-1.55 1.7,-3.65 -0.25,0.2 -0.45,0.45 m -5.85,-14.6 q 1.55,0 2.1,0.55 0.25,0.05 0.45,0.1 1.85,0.5 3.3,1.95 0.2,0.25 0.45,0.5 -0.15,-2.15 -1.7,-3.7 -0.9,-0.9 -2.05,-1.3 -0.95,-0.35 -2.05,-0.35 -2.4,0 -4.1,1.65 -1,1 -1.4,2.25 2.15,-1.65 5,-1.65 z"
           id="path64" />
        <path
           fill="#c4a26f"
           stroke="none"
           d="m 213.1,242.75 2.05,0.85 v -0.85 q 0,-2.4 1.7,-4.1 1.7,-1.65 4.1,-1.65 1.1,0 2.05,0.35 1.15,0.4 2.05,1.3 1.7,1.7 1.7,4.1 v 2.1 q 0.15,1.4 0.95,2.55 0.75,1.1 0.8,2.95 -0.05,1.85 -0.8,2.95 -0.8,1.15 -0.95,2.55 v 0.05 2.05 q 0,2.4 -1.7,4.1 -0.9,0.9 -2.05,1.3 -0.95,0.35 -2.05,0.35 -2.4,0 -4.1,-1.65 -1.7,-1.7 -1.7,-4.1 v -0.8 l -2,0.9 q 0.05,3.15 2.3,5.45 2.3,2.2 5.5,2.2 1.1,0 2.05,-0.25 1.9,-0.5 3.45,-1.95 h 0.05 q 2.25,-2.3 2.25,-5.55 v -1.85 q 0,-0.15 0.05,-0.25 0.1,-0.75 0.55,-1.4 1.1,-1.5 1.15,-4.05 0,-0.05 0,-0.1 -0.05,-2.55 -1.15,-4 v -0.05 q -0.45,-0.65 -0.55,-1.4 -0.05,-0.1 -0.05,-0.2 v -1.9 q 0,-3.25 -2.25,-5.5 h -0.05 q -1.55,-1.5 -3.45,-2 -0.95,-0.25 -2.05,-0.25 -3.2,0 -5.5,2.25 -2.3,2.25 -2.3,5.45 z"
           id="path66" />
        <path
           fill="#7e5125"
           stroke="none"
           d="m 214.5,244.2 q 0.3,-0.3 0.65,-0.6 l -2.05,-0.85 v 0.05 q -1.9,1.85 -2.6,4.25 -0.5,1.45 -0.5,3.15 0,0.1 0,0.15 0,0.1 0,0.2 0,1.75 0.5,3.25 0.7,2.3 2.6,4.2 l 0.05,0.05 2,-0.9 q -0.35,-0.3 -0.65,-0.6 -1.5,-1.5 -2.1,-3.35 -0.4,-1.25 -0.4,-2.65 0,-0.1 0,-0.2 0,-0.05 0,-0.15 0,-1.35 0.4,-2.55 0.6,-1.9 2.1,-3.45 z"
           id="path68" />
        <path
           fill="#bb8044"
           stroke="none"
           d="m 215.45,243.4 q -0.15,0.1 -0.3,0.2 -0.35,0.3 -0.65,0.6 -1.5,1.55 -2.1,3.45 -0.4,1.2 -0.4,2.55 0,0.1 0,0.15 0,0.1 0,0.2 0,1.4 0.4,2.65 0.6,1.85 2.1,3.35 0.3,0.3 0.65,0.6 0.15,0.15 0.35,0.25 2.1,1.6 4.95,1.6 1.6,0 2.15,-0.6 0.6,-0.75 -0.3,-2.25 0,-0.05 -0.05,-0.1 -0.15,-0.2 -0.2,-0.35 0.5,-0.05 0.95,-0.2 1.15,-0.4 2.1,-1.35 1.6,-1.6 1.6,-3.8 0,-2.15 -1.6,-3.75 -0.95,-0.95 -2.1,-1.3 -0.5,-0.15 -1,-0.2 0.1,-0.2 0.25,-0.4 0.05,-0.05 0.05,-0.1 0.95,-1.6 0.25,-2.3 -0.55,-0.55 -2.1,-0.55 -2.85,0 -5,1.65 z"
           id="path70" />
      </g>
    </g>
  </g>
</svg>
